<svg width="466" height="110" viewBox="0 0 466 110" fill="none" xmlns="http://www.w3.org/2000/svg">
<path d="M19.0912 19.46V83H5.99915V19.46H19.0912ZM44.4025 46.6041V56.8159H15.5127V46.6041H44.4025ZM47.4573 19.46V29.7154H15.5127V19.46H47.4573ZM51.2976 59.8707V58.9543C51.2976 55.4922 51.7922 52.3064 52.7814 49.3971C53.7705 46.4587 55.2107 43.913 57.1017 41.7601C58.9928 39.6072 61.3203 37.9343 64.0842 36.7415C66.848 35.5195 70.0192 34.9086 73.5977 34.9086C77.1762 34.9086 80.3619 35.5195 83.1549 36.7415C85.9479 37.9343 88.2899 39.6072 90.181 41.7601C92.1011 43.913 93.5558 46.4587 94.545 49.3971C95.5342 52.3064 96.0287 55.4922 96.0287 58.9543V59.8707C96.0287 63.3038 95.5342 66.4895 94.545 69.4279C93.5558 72.3373 92.1011 74.8829 90.181 77.0649C88.2899 79.2179 85.9624 80.8907 83.1985 82.0836C80.4347 83.2764 77.2635 83.8728 73.685 83.8728C70.1065 83.8728 66.9208 83.2764 64.1278 82.0836C61.3639 80.8907 59.0219 79.2179 57.1017 77.0649C55.2107 74.8829 53.7705 72.3373 52.7814 69.4279C51.7922 66.4895 51.2976 63.3038 51.2976 59.8707ZM63.866 58.9543V59.8707C63.866 61.8491 64.0405 63.6965 64.3896 65.413C64.7388 67.1295 65.2915 68.6424 66.048 69.9516C66.8335 71.2317 67.8518 72.2354 69.1028 72.9628C70.3538 73.6901 71.8812 74.0538 73.685 74.0538C75.4306 74.0538 76.9289 73.6901 78.1799 72.9628C79.4309 72.2354 80.4347 71.2317 81.1911 69.9516C81.9475 68.6424 82.5003 67.1295 82.8494 65.413C83.2276 63.6965 83.4167 61.8491 83.4167 59.8707V58.9543C83.4167 57.0341 83.2276 55.2303 82.8494 53.5429C82.5003 51.8264 81.933 50.3135 81.1475 49.0043C80.391 47.666 79.3873 46.6187 78.1363 45.8622C76.8853 45.1058 75.3724 44.7276 73.5977 44.7276C71.823 44.7276 70.3102 45.1058 69.0591 45.8622C67.8372 46.6187 66.8335 47.666 66.048 49.0043C65.2915 50.3135 64.7388 51.8264 64.3896 53.5429C64.0405 55.2303 63.866 57.0341 63.866 58.9543ZM101.746 59.8707V58.9543C101.746 55.4922 102.24 52.3064 103.229 49.3971C104.219 46.4587 105.659 43.913 107.55 41.7601C109.441 39.6072 111.768 37.9343 114.532 36.7415C117.296 35.5195 120.467 34.9086 124.046 34.9086C127.624 34.9086 130.81 35.5195 133.603 36.7415C136.396 37.9343 138.738 39.6072 140.629 41.7601C142.549 43.913 144.004 46.4587 144.993 49.3971C145.982 52.3064 146.477 55.4922 146.477 58.9543V59.8707C146.477 63.3038 145.982 66.4895 144.993 69.4279C144.004 72.3373 142.549 74.8829 140.629 77.0649C138.738 79.2179 136.41 80.8907 133.647 82.0836C130.883 83.2764 127.711 83.8728 124.133 83.8728C120.555 83.8728 117.369 83.2764 114.576 82.0836C111.812 80.8907 109.47 79.2179 107.55 77.0649C105.659 74.8829 104.219 72.3373 103.229 69.4279C102.24 66.4895 101.746 63.3038 101.746 59.8707ZM114.314 58.9543V59.8707C114.314 61.8491 114.489 63.6965 114.838 65.413C115.187 67.1295 115.74 68.6424 116.496 69.9516C117.281 71.2317 118.3 72.2354 119.551 72.9628C120.802 73.6901 122.329 74.0538 124.133 74.0538C125.879 74.0538 127.377 73.6901 128.628 72.9628C129.879 72.2354 130.883 71.2317 131.639 69.9516C132.396 68.6424 132.948 67.1295 133.297 65.413C133.676 63.6965 133.865 61.8491 133.865 59.8707V58.9543C133.865 57.0341 133.676 55.2303 133.297 53.5429C132.948 51.8264 132.381 50.3135 131.595 49.0043C130.839 47.666 129.835 46.6187 128.584 45.8622C127.333 45.1058 125.82 44.7276 124.046 44.7276C122.271 44.7276 120.758 45.1058 119.507 45.8622C118.285 46.6187 117.281 47.666 116.496 49.0043C115.74 50.3135 115.187 51.8264 114.838 53.5429C114.489 55.2303 114.314 57.0341 114.314 58.9543ZM182.087 72.7009V15.9688H194.743V83H183.353L182.087 72.7009ZM152.237 59.958V59.0416C152.237 55.434 152.645 52.161 153.459 49.2225C154.274 46.255 155.467 43.7093 157.038 41.5855C158.609 39.4617 160.543 37.8179 162.842 36.6542C165.14 35.4904 167.759 34.9086 170.697 34.9086C173.461 34.9086 175.876 35.4904 177.941 36.6542C180.036 37.8179 181.811 39.4762 183.265 41.6292C184.749 43.753 185.942 46.2696 186.844 49.1789C187.746 52.0591 188.4 55.2158 188.808 58.6488V60.6562C188.4 63.9438 187.746 66.9986 186.844 69.8207C185.942 72.6427 184.749 75.1157 183.265 77.2395C181.811 79.3342 180.036 80.9635 177.941 82.1272C175.847 83.2909 173.403 83.8728 170.61 83.8728C167.671 83.8728 165.053 83.2764 162.755 82.0836C160.485 80.8907 158.565 79.2179 156.994 77.0649C155.452 74.912 154.274 72.3809 153.459 69.4716C152.645 66.5622 152.237 63.391 152.237 59.958ZM164.806 59.0416V59.958C164.806 61.9073 164.951 63.7256 165.242 65.413C165.562 67.1004 166.071 68.5988 166.769 69.908C167.497 71.1881 168.428 72.1918 169.562 72.9191C170.726 73.6174 172.137 73.9665 173.795 73.9665C175.948 73.9665 177.723 73.4865 179.12 72.5264C180.516 71.5372 181.578 70.1843 182.305 68.4678C183.062 66.7513 183.498 64.773 183.615 62.5328V56.8159C183.527 54.983 183.265 53.3393 182.829 51.8846C182.422 50.4008 181.811 49.1353 180.996 48.0879C180.211 47.0405 179.221 46.2259 178.029 45.644C176.865 45.0622 175.483 44.7712 173.883 44.7712C172.254 44.7712 170.857 45.1495 169.693 45.9059C168.53 46.6332 167.584 47.6369 166.857 48.9171C166.158 50.1972 165.635 51.71 165.286 53.4556C164.966 55.1721 164.806 57.0341 164.806 59.0416Z" fill="white"/>
<g filter="url(#filter0_d_1_146)">
<path d="M226.917 67.3731C226.917 66.2385 226.742 65.2202 226.393 64.3183C226.073 63.3873 225.462 62.5436 224.56 61.7872C223.658 61.0016 222.393 60.2307 220.764 59.4742C219.134 58.7178 217.025 57.9323 214.436 57.1177C211.556 56.1867 208.821 55.1393 206.232 53.9756C203.671 52.8118 201.402 51.459 199.424 49.9171C197.474 48.346 195.932 46.5277 194.798 44.462C193.692 42.3964 193.139 39.9962 193.139 37.2614C193.139 34.6139 193.721 32.2137 194.885 30.0608C196.049 27.8788 197.678 26.0168 199.773 24.4749C201.867 22.9038 204.34 21.6964 207.192 20.8527C210.072 20.009 213.228 19.5872 216.661 19.5872C221.346 19.5872 225.433 20.4309 228.924 22.1183C232.416 23.8057 235.121 26.1186 237.041 29.0571C238.991 31.9955 239.965 35.3558 239.965 39.1379H226.961C226.961 37.276 226.568 35.6467 225.782 34.2502C225.026 32.8247 223.862 31.7046 222.291 30.89C220.749 30.0753 218.8 29.668 216.443 29.668C214.174 29.668 212.283 30.0172 210.77 30.7154C209.257 31.3845 208.123 32.301 207.366 33.4647C206.61 34.5994 206.232 35.8795 206.232 37.3051C206.232 38.3815 206.493 39.3561 207.017 40.2289C207.57 41.1017 208.384 41.9164 209.461 42.6728C210.537 43.4292 211.861 44.142 213.432 44.8112C215.003 45.4803 216.822 46.1349 218.887 46.775C222.349 47.8223 225.39 49.0006 228.008 50.3098C230.655 51.619 232.867 53.0882 234.641 54.7175C236.416 56.3467 237.754 58.1941 238.656 60.2598C239.558 62.3254 240.009 64.6674 240.009 67.2858C240.009 70.0497 239.471 72.5226 238.394 74.7047C237.318 76.8867 235.761 78.7341 233.725 80.2469C231.688 81.7598 229.259 82.909 226.437 83.6945C223.615 84.48 220.458 84.8728 216.967 84.8728C213.825 84.8728 210.726 84.4655 207.672 83.6509C204.617 82.8072 201.838 81.5416 199.336 79.8542C196.863 78.1668 194.885 76.0139 193.401 73.3954C191.918 70.777 191.176 67.6786 191.176 64.1001H204.311C204.311 66.0785 204.617 67.7513 205.228 69.1187C205.839 70.4861 206.697 71.5917 207.803 72.4354C208.937 73.2791 210.275 73.89 211.817 74.2682C213.388 74.6465 215.105 74.8356 216.967 74.8356C219.236 74.8356 221.098 74.5155 222.553 73.8755C224.037 73.2354 225.128 72.3481 225.826 71.2134C226.553 70.0788 226.917 68.7987 226.917 67.3731ZM262.135 78.6759L274.659 36.7814H288.144L269.161 91.1133C268.753 92.3062 268.201 93.5863 267.502 94.9537C266.833 96.3211 265.917 97.6157 264.753 98.8376C263.618 100.089 262.178 101.107 260.433 101.892C258.716 102.678 256.607 103.071 254.105 103.071C252.912 103.071 251.937 102.998 251.181 102.853C250.424 102.707 249.523 102.503 248.475 102.242V93.0335C248.795 93.0335 249.13 93.0335 249.479 93.0335C249.828 93.0626 250.163 93.0771 250.483 93.0771C252.141 93.0771 253.494 92.888 254.541 92.5098C255.589 92.1316 256.432 91.5497 257.072 90.7642C257.712 90.0078 258.221 89.0186 258.6 87.7967L262.135 78.6759ZM256.898 36.7814L267.153 70.9952L268.942 84.3055L260.389 85.2219L243.413 36.7814H256.898ZM318.692 70.9516C318.692 70.0497 318.43 69.2351 317.907 68.5078C317.383 67.7804 316.408 67.1113 314.983 66.5003C313.586 65.8602 311.564 65.2784 308.917 64.7547C306.531 64.231 304.305 63.5764 302.24 62.7909C300.203 61.9763 298.429 61.0016 296.916 59.867C295.432 58.7324 294.268 57.3941 293.424 55.8521C292.581 54.2811 292.159 52.4918 292.159 50.4844C292.159 48.506 292.581 46.644 293.424 44.8984C294.297 43.1528 295.534 41.6109 297.134 40.2726C298.763 38.9052 300.741 37.8433 303.069 37.0869C305.426 36.3013 308.073 35.9086 311.011 35.9086C315.114 35.9086 318.634 36.5632 321.572 37.8724C324.54 39.1816 326.809 40.9854 328.38 43.2838C329.98 45.553 330.78 48.1424 330.78 51.0517H318.212C318.212 49.8298 317.95 48.7388 317.427 47.7787C316.932 46.7895 316.146 46.0185 315.07 45.4658C314.023 44.8839 312.655 44.593 310.968 44.593C309.571 44.593 308.364 44.8403 307.346 45.3348C306.327 45.8003 305.542 46.4404 304.989 47.255C304.465 48.0405 304.204 48.9133 304.204 49.8734C304.204 50.6007 304.349 51.2554 304.64 51.8372C304.96 52.39 305.469 52.8991 306.167 53.3646C306.866 53.8301 307.768 54.2665 308.873 54.6738C310.008 55.052 311.404 55.4012 313.063 55.7212C316.466 56.4194 319.507 57.3359 322.183 58.4705C324.86 59.5761 326.984 61.0889 328.555 63.0091C330.126 64.9002 330.911 67.3877 330.911 70.4716C330.911 72.5663 330.446 74.4865 329.515 76.2321C328.584 77.9777 327.246 79.5051 325.5 80.8143C323.754 82.0944 321.66 83.0981 319.216 83.8254C316.801 84.5237 314.081 84.8728 311.055 84.8728C306.662 84.8728 302.938 84.0873 299.883 82.5162C296.858 80.9452 294.559 78.9523 292.988 76.5375C291.446 74.0937 290.675 71.5917 290.675 69.0314H302.589C302.647 70.7479 303.084 72.1299 303.898 73.1772C304.742 74.2246 305.804 74.981 307.084 75.4465C308.393 75.912 309.804 76.1448 311.317 76.1448C312.946 76.1448 314.299 75.9266 315.375 75.4902C316.452 75.0247 317.267 74.4137 317.819 73.6573C318.401 72.8718 318.692 71.9699 318.692 70.9516ZM362.201 36.7814V45.684H334.708V36.7814H362.201ZM341.516 25.1295H354.084V69.7733C354.084 71.1407 354.259 72.1881 354.608 72.9154C354.986 73.6427 355.539 74.1519 356.266 74.4428C356.994 74.7047 357.91 74.8356 359.016 74.8356C359.801 74.8356 360.499 74.8065 361.11 74.7483C361.75 74.661 362.289 74.5737 362.725 74.4865L362.769 83.7382C361.692 84.0873 360.528 84.3637 359.277 84.5673C358.026 84.771 356.645 84.8728 355.132 84.8728C352.368 84.8728 349.953 84.4219 347.887 83.52C345.851 82.589 344.28 81.1052 343.174 79.0687C342.069 77.0321 341.516 74.3555 341.516 71.0389V25.1295ZM391.091 84.8728C387.425 84.8728 384.138 84.2909 381.228 83.1272C378.319 81.9344 375.846 80.2906 373.81 78.1959C371.802 76.1011 370.26 73.6718 369.184 70.908C368.107 68.115 367.569 65.1475 367.569 62.0054V60.2598C367.569 56.6813 368.078 53.4083 369.096 50.4407C370.115 47.4732 371.569 44.8984 373.461 42.7164C375.381 40.5344 377.708 38.8616 380.443 37.6978C383.178 36.505 386.262 35.9086 389.695 35.9086C393.04 35.9086 396.008 36.4613 398.597 37.5669C401.187 38.6724 403.354 40.2435 405.1 42.28C406.874 44.3166 408.213 46.7604 409.115 49.6116C410.016 52.4336 410.467 55.5757 410.467 59.0378V64.2747H372.937V55.8958H398.117V54.9357C398.117 53.1901 397.797 51.6336 397.157 50.2662C396.546 48.8697 395.615 47.7641 394.364 46.9495C393.113 46.1349 391.513 45.7276 389.564 45.7276C387.905 45.7276 386.48 46.0913 385.287 46.8186C384.094 47.5459 383.12 48.5642 382.363 49.8734C381.636 51.1826 381.083 52.7246 380.705 54.4993C380.356 56.2449 380.181 58.165 380.181 60.2598V62.0054C380.181 63.8964 380.443 65.642 380.967 67.2422C381.519 68.8423 382.29 70.2243 383.28 71.388C384.298 72.5517 385.52 73.4536 386.945 74.0937C388.4 74.7337 390.044 75.0538 391.877 75.0538C394.146 75.0538 396.255 74.6174 398.204 73.7446C400.183 72.8427 401.885 71.4898 403.31 69.686L409.42 76.3193C408.431 77.7449 407.078 79.1123 405.361 80.4215C403.674 81.7307 401.637 82.8072 399.252 83.6509C396.866 84.4655 394.146 84.8728 391.091 84.8728ZM429.931 46.8622V84H417.362V36.7814H429.145L429.931 46.8622ZM428.098 58.7324H424.694C424.694 55.2411 425.145 52.0991 426.047 49.3061C426.949 46.484 428.214 44.0838 429.844 42.1055C431.473 40.098 433.408 38.5706 435.648 37.5233C437.917 36.4468 440.448 35.9086 443.241 35.9086C445.452 35.9086 447.474 36.2286 449.307 36.8687C451.14 37.5087 452.711 38.527 454.02 39.9235C455.359 41.3199 456.377 43.1674 457.075 45.4658C457.802 47.7641 458.166 50.5717 458.166 53.8883V84H445.51V53.8447C445.51 51.7499 445.219 50.1207 444.638 48.957C444.056 47.7932 443.197 46.9786 442.063 46.5131C440.957 46.0185 439.59 45.7712 437.961 45.7712C436.273 45.7712 434.804 46.1058 433.553 46.775C432.331 47.4441 431.313 48.3751 430.498 49.5679C429.713 50.7317 429.116 52.0991 428.709 53.6701C428.302 55.2411 428.098 56.9286 428.098 58.7324Z" fill="#3FFFA3"/>
</g>
<defs>
<filter id="filter0_d_1_146" x="182.176" y="9.58716" width="282.99" height="99.4836" filterUnits="userSpaceOnUse" color-interpolation-filters="sRGB">
<feFlood flood-opacity="0" result="BackgroundImageFix"/>
<feColorMatrix in="SourceAlpha" type="matrix" values="0 0 0 0 0 0 0 0 0 0 0 0 0 0 0 0 0 0 127 0" result="hardAlpha"/>
<feOffset dx="-1" dy="-2"/>
<feGaussianBlur stdDeviation="4"/>
<feComposite in2="hardAlpha" operator="out"/>
<feColorMatrix type="matrix" values="0 0 0 0 0 0 0 0 0 0 0 0 0 0 0 0 0 0 0.5 0"/>
<feBlend mode="normal" in2="BackgroundImageFix" result="effect1_dropShadow_1_146"/>
<feBlend mode="normal" in="SourceGraphic" in2="effect1_dropShadow_1_146" result="shape"/>
</filter>
</defs>
</svg>
