<svg width="16" height="16" viewBox="0 0 16 16" fill="none" xmlns="http://www.w3.org/2000/svg">
<rect width="16" height="16" fill="#101026"/>
<path d="M4.73193 3.52799V12H2.98633V3.52799H4.73193ZM8.10677 7.14722V8.50879H4.2548V7.14722H8.10677ZM8.51408 3.52799V4.89538H4.2548V3.52799H8.51408Z" fill="white"/>
<g filter="url(#filter0_d_14363_2)">
<path d="M11.4954 9.78308C11.4954 9.63179 11.4721 9.49603 11.4256 9.37577C11.3829 9.25164 11.3014 9.13915 11.1812 9.03829C11.0609 8.93355 10.8922 8.83076 10.675 8.7299C10.4577 8.62904 10.1765 8.52431 9.83126 8.41569C9.44722 8.29156 9.08259 8.15191 8.73735 7.99674C8.39598 7.84158 8.09341 7.6612 7.82963 7.45561C7.56973 7.24613 7.36414 7.00369 7.21285 6.72827C7.06544 6.45285 6.99174 6.13283 6.99174 5.76819C6.99174 5.41519 7.06932 5.09516 7.22449 4.8081C7.37965 4.51717 7.59688 4.26891 7.87618 4.06331C8.15548 3.85384 8.4852 3.69286 8.86536 3.58036C9.24939 3.46787 9.67027 3.41162 10.128 3.41162C10.7525 3.41162 11.2976 3.52411 11.7631 3.7491C12.2286 3.97409 12.5893 4.28248 12.8453 4.67427C13.1052 5.06607 13.2352 5.51411 13.2352 6.01839H11.5012C11.5012 5.77013 11.4489 5.5529 11.3441 5.3667C11.2433 5.17662 11.0881 5.02728 10.8786 4.91866C10.673 4.81004 10.4131 4.75574 10.0989 4.75574C9.79635 4.75574 9.5442 4.80229 9.34249 4.89538C9.14077 4.9846 8.98949 5.1068 8.88863 5.26196C8.78777 5.41325 8.73735 5.58393 8.73735 5.77401C8.73735 5.91753 8.77226 6.04748 8.84208 6.16386C8.91578 6.28023 9.0244 6.38885 9.16793 6.4897C9.31146 6.59056 9.48796 6.6856 9.69743 6.77482C9.9069 6.86404 10.1493 6.95132 10.4248 7.03666C10.8864 7.17631 11.2917 7.33341 11.6409 7.50797C11.9939 7.68254 12.2887 7.87843 12.5253 8.09566C12.7619 8.31289 12.9404 8.55922 13.0606 8.83464C13.1809 9.11005 13.241 9.42232 13.241 9.77144C13.241 10.14 13.1692 10.4697 13.0257 10.7606C12.8822 11.0516 12.6747 11.2979 12.4031 11.4996C12.1316 11.7013 11.8077 11.8545 11.4314 11.9593C11.0551 12.064 10.6342 12.1164 10.1687 12.1164C9.7498 12.1164 9.33667 12.0621 8.92936 11.9535C8.52205 11.841 8.1516 11.6722 7.81799 11.4472C7.48827 11.2222 7.22449 10.9352 7.02665 10.5861C6.82882 10.2369 6.7299 9.82381 6.7299 9.34668H8.48132C8.48132 9.61046 8.52205 9.83351 8.60352 10.0158C8.68498 10.1981 8.79941 10.3456 8.94682 10.458C9.0981 10.5705 9.27654 10.652 9.48214 10.7024C9.69161 10.7529 9.92048 10.7781 10.1687 10.7781C10.4713 10.7781 10.7196 10.7354 10.9135 10.6501C11.1114 10.5647 11.2568 10.4464 11.3499 10.2951C11.4469 10.1438 11.4954 9.97316 11.4954 9.78308Z" fill="#3FFFA3"/>
</g>
<defs>
<filter id="filter0_d_14363_2" x="5.52998" y="2.07829" width="8.64432" height="10.838" filterUnits="userSpaceOnUse" color-interpolation-filters="sRGB">
<feFlood flood-opacity="0" result="BackgroundImageFix"/>
<feColorMatrix in="SourceAlpha" type="matrix" values="0 0 0 0 0 0 0 0 0 0 0 0 0 0 0 0 0 0 127 0" result="hardAlpha"/>
<feOffset dx="-0.133333" dy="-0.266667"/>
<feGaussianBlur stdDeviation="0.533333"/>
<feComposite in2="hardAlpha" operator="out"/>
<feColorMatrix type="matrix" values="0 0 0 0 0 0 0 0 0 0 0 0 0 0 0 0 0 0 0.5 0"/>
<feBlend mode="normal" in2="BackgroundImageFix" result="effect1_dropShadow_14363_2"/>
<feBlend mode="normal" in="SourceGraphic" in2="effect1_dropShadow_14363_2" result="shape"/>
</filter>
</defs>
</svg>
